<?xml version="1.0" encoding="UTF-8"?>
<svg width="374px" height="83px" viewBox="0 0 374 83" version="1.1" xmlns="http://www.w3.org/2000/svg" xmlns:xlink="http://www.w3.org/1999/xlink">
    <title>Group</title>
    <defs>
        <path d="M16.905,81.15 C23.805,81.15 30.1491667,79.6358333 35.9375,76.6075 C41.7258333,73.5791667 46.3833333,69.42 49.91,64.13 C50.14,63.7466667 50.3508333,63.3441667 50.5425,62.9225 C50.7341667,62.5008333 50.83,61.9833333 50.83,61.37 C50.83,60.2966667 50.6766667,59.76 50.37,59.76 C50.2166667,59.76 50.025,59.9133333 49.795,60.22 C45.0416667,66.7366667 40.02,71.7008333 34.73,75.1125 C29.44,78.5241667 23.575,80.23 17.135,80.23 C15.6016667,80.23 14.1066667,80.0958333 12.65,79.8275 C11.1933333,79.5591667 9.90916667,79.08 8.7975,78.39 C7.68583333,77.7 6.785,76.7416667 6.095,75.515 C5.405,74.2883333 5.06,72.7166667 5.06,70.8 C5.06,67.2733333 5.76916667,63.6508333 7.1875,59.9325 C8.60583333,56.2141667 10.3883333,52.6875 12.535,49.3525 C14.6816667,46.0175 16.9625,43.0083333 19.3775,40.325 C21.7925,37.6416667 23.9583333,35.61 25.875,34.23 C27.5616667,33.0033333 29.3633333,31.9491667 31.28,31.0675 C33.1966667,30.1858333 35.2666667,29.745 37.49,29.745 C40.25,29.745 42.4925,30.0516667 44.2175,30.665 C45.9425,31.2783333 47.3225,32.0833333 48.3575,33.08 C49.3925,34.0766667 50.1016667,35.1883333 50.485,36.415 C50.8683333,37.6416667 51.06,38.83 51.06,39.98 C51.06,40.5933333 51.0025,41.3025 50.8875,42.1075 C50.7725,42.9125 50.6383333,43.5066667 50.485,43.89 L50.485,43.89 L51.52,43.545 C52.0566667,42.0116667 52.7466667,40.2675 53.59,38.3125 C54.4333333,36.3575 55.1233333,34.92 55.66,34 C55.66,33.3866667 55.3533333,32.9266667 54.74,32.62 C52.2866667,31.1633333 49.6225,30.1475 46.7475,29.5725 C43.8725,28.9975 41.055,28.71 38.295,28.71 C34.615,28.71 31.0883333,29.3425 27.715,30.6075 C24.3416667,31.8725 21.275,33.5783333 18.515,35.725 C16.2916667,37.4116667 14.0875,39.4816667 11.9025,41.935 C9.7175,44.3883333 7.74333333,47.0333333 5.98,49.87 C4.21666667,52.7066667 2.77916667,55.6583333 1.6675,58.725 C0.555833333,61.7916667 2.84217094e-14,64.7816667 2.84217094e-14,67.695 C2.84217094e-14,70.3016667 0.46,72.4675 1.38,74.1925 C2.3,75.9175 3.54583333,77.2975 5.1175,78.3325 C6.68916667,79.3675 8.49083333,80.0958333 10.5225,80.5175 C12.5541667,80.9391667 14.6816667,81.15 16.905,81.15 Z M50.83,80.46 C51.2133333,80.46 51.4433333,80.345 51.52,80.115 C52.5933333,78.4283333 53.59,76.7608333 54.51,75.1125 C55.43,73.4641667 56.3883333,71.8541667 57.385,70.2825 C58.3816667,68.7108333 59.4358333,67.1966667 60.5475,65.74 C61.6591667,64.2833333 62.9433333,62.9416667 64.4,61.715 C65.32,60.8716667 66.3933333,60.105 67.62,59.415 C68.8466667,58.725 69.9583333,58.38 70.955,58.38 C71.7983333,58.38 72.45,58.495 72.91,58.725 C73.37,58.955 73.7341667,59.2041667 74.0025,59.4725 C74.2708333,59.7408333 74.4816667,59.99 74.635,60.22 C74.7883333,60.45 74.9033333,60.565 74.98,60.565 C75.21,60.565 75.3633333,60.45 75.44,60.22 C75.5933333,59.8366667 75.9191667,59.2616667 76.4175,58.495 C76.9158333,57.7283333 77.395,57.0766667 77.855,56.54 C77.855,56.1566667 77.6058333,55.7925 77.1075,55.4475 C76.6091667,55.1025 76.015,54.93 75.325,54.93 C74.405,54.93 73.3508333,55.1983333 72.1625,55.735 C70.9741667,56.2716667 69.7666667,56.9425 68.54,57.7475 C67.3133333,58.5525 66.1441667,59.415 65.0325,60.335 C63.9208333,61.255 62.9816667,62.0983333 62.215,62.865 C61.985,63.095 61.7933333,63.21 61.64,63.21 C61.4866667,63.21 61.525,63.0183333 61.755,62.635 C61.9083333,62.405 62.1383333,62.0216667 62.445,61.485 C62.7516667,60.9483333 63.0775,60.3925 63.4225,59.8175 C63.7675,59.2425 64.0741667,58.6866667 64.3425,58.15 C64.6108333,57.6133333 64.745,57.23 64.745,57 C64.745,56.31 64.4383333,55.7733333 63.825,55.39 C63.2116667,55.0066667 62.8283333,54.815 62.675,54.815 C62.5216667,54.815 62.2533333,55.16 61.87,55.85 C61.5633333,56.54 60.9883333,57.5941667 60.145,59.0125 C59.3016667,60.4308333 58.3241667,62.0983333 57.2125,64.015 C56.1008333,65.9316667 54.9125,67.9825 53.6475,70.1675 C52.3825,72.3525 51.1366667,74.5183333 49.91,76.665 C49.3733333,77.585 49.105,78.275 49.105,78.735 C49.105,78.965 49.3541667,79.31 49.8525,79.77 C50.3508333,80.23 50.6766667,80.46 50.83,80.46 Z M97.06,81.38 C99.4366667,81.38 101.966667,81.265 104.65,81.035 C107.333333,80.805 110.016667,80.3833333 112.7,79.77 C114.54,79.31 116.820833,78.4475 119.5425,77.1825 C122.264167,75.9175 124.851667,73.8283333 127.305,70.915 C127.688333,70.5316667 127.803333,70.2441667 127.65,70.0525 C127.496667,69.8608333 127.228333,69.9566667 126.845,70.34 C124.238333,73.1766667 121.325,75.285 118.105,76.665 C114.885,78.045 111.78,78.735 108.79,78.735 C107.256667,78.735 106.451667,78.6391667 106.375,78.4475 C106.298333,78.2558333 106.566667,78.0066667 107.18,77.7 C108.713333,77.01 110.016667,75.86 111.09,74.25 C112.163333,72.64 112.7,71.0683333 112.7,69.535 C112.7,68.0016667 112.546667,66.3916667 112.24,64.705 C111.933333,63.0183333 111.78,61.6383333 111.78,60.565 C111.78,59.0316667 112.163333,57.805 112.93,56.885 C113.696667,55.965 114.846667,55.505 116.38,55.505 C117.223333,55.505 117.798333,55.85 118.105,56.54 C118.411667,57.23 118.641667,57.575 118.795,57.575 C119.025,57.575 119.293333,57.4216667 119.6,57.115 L119.6,57.115 L120.405,56.31 C120.481667,56.08 120.52,55.735 120.52,55.275 C120.52,54.6616667 120.309167,54.2016667 119.8875,53.895 C119.465833,53.5883333 119.025,53.435 118.565,53.435 C117.645,53.435 116.590833,53.7033333 115.4025,54.24 C114.214167,54.7766667 113.064167,55.505 111.9525,56.425 C110.840833,57.345 109.901667,58.38 109.135,59.53 C108.368333,60.68 107.985,61.8683333 107.985,63.095 C107.985,63.4016667 107.793333,63.8233333 107.41,64.36 C104.573333,67.7333333 101.813333,70.4166667 99.13,72.41 C96.4466667,74.4033333 94.0125,75.9175 91.8275,76.9525 C89.6425,77.9875 87.7258333,78.6391667 86.0775,78.9075 C84.4291667,79.1758333 83.1833333,79.31 82.34,79.31 C79.81,79.31 78.545,77.93 78.545,75.17 C78.545,73.8666667 78.7366667,72.5825 79.12,71.3175 C79.5033333,70.0525 79.9633333,68.845 80.5,67.695 C81.0366667,66.545 81.5733333,65.5483333 82.11,64.705 C82.6466667,63.8616667 83.0683333,63.2866667 83.375,62.98 C83.605,62.75 83.7966667,62.7116667 83.95,62.865 C84.7166667,63.7083333 85.8666667,64.13 87.4,64.13 C89.01,64.13 90.3516667,63.8425 91.425,63.2675 C92.4983333,62.6925 93.38,62.0408333 94.07,61.3125 C94.76,60.5841667 95.2391667,59.8366667 95.5075,59.07 C95.7758333,58.3033333 95.91,57.69 95.91,57.23 C95.91,56.54 95.7566667,55.9458333 95.45,55.4475 C95.1433333,54.9491667 94.6066667,54.7 93.84,54.7 C91.2333333,54.7 88.7416667,55.5625 86.365,57.2875 C83.9883333,59.0125 81.88,61.0441667 80.04,63.3825 C78.2,65.7208333 76.7433333,68.0783333 75.67,70.455 C74.5966667,72.8316667 74.06,74.6716667 74.06,75.975 C74.06,77.0483333 74.2708333,77.8916667 74.6925,78.505 C75.1141667,79.1183333 75.6508333,79.5975 76.3025,79.9425 C76.9541667,80.2875 77.6441667,80.4983333 78.3725,80.575 C79.1008333,80.6516667 79.7716667,80.69 80.385,80.69 C84.525,80.69 89.0866667,79.3675 94.07,76.7225 C99.0533333,74.0775 103.768333,70.225 108.215,65.165 C108.521667,66.0083333 108.713333,66.89 108.79,67.81 C108.866667,68.73 108.905,69.6116667 108.905,70.455 C108.905,72.1416667 108.694167,73.5216667 108.2725,74.595 C107.850833,75.6683333 107.295,76.5116667 106.605,77.125 C105.915,77.7383333 105.1675,78.16 104.3625,78.39 C103.5575,78.62 102.81,78.735 102.12,78.735 C101.123333,78.735 100.165,78.6966667 99.245,78.62 C98.325,78.5433333 97.4816667,78.505 96.715,78.505 C95.9483333,78.6583333 95.2583333,79.0033333 94.645,79.54 C94.0316667,80.0766667 93.725,80.4216667 93.725,80.575 C93.725,81.1116667 94.8366667,81.38 97.06,81.38 Z M86.25,62.98 C85.0233333,62.98 84.41,62.5966667 84.41,61.83 C84.5633333,61.37 84.8508333,60.8333333 85.2725,60.22 C85.6941667,59.6066667 86.2116667,59.0125 86.825,58.4375 C87.4383333,57.8625 88.0516667,57.3833333 88.665,57 C89.2783333,56.6166667 89.815,56.425 90.275,56.425 C90.965,56.425 91.3675,56.655 91.4825,57.115 C91.5975,57.575 91.655,57.9583333 91.655,58.265 C91.655,59.7983333 91.0225,60.9675 89.7575,61.7725 C88.4925,62.5775 87.3233333,62.98 86.25,62.98 Z M129.72,80.575 C132.02,80.575 134.281667,80.1916667 136.505,79.425 C138.728333,78.6583333 141.143333,77.4316667 143.75,75.745 C144.133333,75.5916667 144.21,75.3808333 143.98,75.1125 C143.75,74.8441667 143.52,74.825 143.29,75.055 C141.526667,76.1283333 139.859167,76.9908333 138.2875,77.6425 C136.715833,78.2941667 135.316667,78.62 134.09,78.62 C131.56,78.62 130.295,77.24 130.295,74.48 C130.295,72.4866667 130.87,70.1483333 132.02,67.465 C133.17,64.7816667 134.818333,61.5233333 136.965,57.69 C138.115,57.6133333 139.456667,57.5366667 140.99,57.46 C142.523333,57.3833333 144.018333,57.3066667 145.475,57.23 C146.931667,57.1533333 148.273333,57.0958333 149.5,57.0575 C150.726667,57.0191667 151.646667,57 152.26,57 C152.413333,56.9233333 152.49,56.8083333 152.49,56.655 C152.49,56.5016667 152.375,56.3483333 152.145,56.195 L152.145,56.195 L137.885,56.195 C139.418333,53.5116667 141.009167,50.8283333 142.6575,48.145 C144.305833,45.4616667 146.011667,42.8933333 147.775,40.44 C148.158333,39.8266667 148.733333,39.3091667 149.5,38.8875 C150.266667,38.4658333 150.956667,38.1783333 151.57,38.025 C151.876667,37.8716667 151.991667,37.6991667 151.915,37.5075 C151.838333,37.3158333 151.723333,37.22 151.57,37.22 C150.42,37.6033333 149.0975,38.1016667 147.6025,38.715 C146.1075,39.3283333 144.938333,39.8266667 144.095,40.21 C143.405,41.36 142.619167,42.6058333 141.7375,43.9475 C140.855833,45.2891667 139.993333,46.6691667 139.15,48.0875 C138.306667,49.5058333 137.463333,50.9241667 136.62,52.3425 C135.776667,53.7608333 135.01,55.045 134.32,56.195 L134.32,56.195 L128.455,56.31 C127.765,56.8466667 127.266667,57.3833333 126.96,57.92 C126.96,58.2266667 127.151667,58.38 127.535,58.38 C127.635625,58.38 127.84264,58.3689941 128.156045,58.3469824 L128.450732,58.3254199 C128.824932,58.2971191 129.305521,58.2578125 129.8925,58.2075 C131.234167,58.0925 132.365,57.9966667 133.285,57.92 C130.601667,62.29 128.57,65.97 127.19,68.96 C125.81,71.95 125.12,74.2116667 125.12,75.745 C125.12,77.5083333 125.58,78.7541667 126.5,79.4825 C127.42,80.2108333 128.493333,80.575 129.72,80.575 Z M150.765,80.805 C151.685,80.805 152.835,80.4983333 154.215,79.885 C155.825,79.0416667 157.339167,77.9683333 158.7575,76.665 C160.175833,75.3616667 161.46,73.9241667 162.61,72.3525 C163.76,70.7808333 164.756667,69.2091667 165.6,67.6375 C166.443333,66.0658333 167.133333,64.6666667 167.67,63.44 C168.436667,64.7433333 169.4525,65.7208333 170.7175,66.3725 C171.9825,67.0241667 173.266667,67.35 174.57,67.35 C176.946667,67.35 179.074167,66.6408333 180.9525,65.2225 C182.830833,63.8041667 184.421667,62.2133333 185.725,60.45 C186.031667,60.1433333 186.0125,59.9133333 185.6675,59.76 C185.3225,59.6066667 185.073333,59.7216667 184.92,60.105 C183.846667,61.6383333 182.505,63.0566667 180.895,64.36 C179.285,65.6633333 177.483333,66.315 175.49,66.315 C173.496667,66.315 172.0975,65.625 171.2925,64.245 C170.4875,62.865 170.085,61.1016667 170.085,58.955 C170.085,57.4216667 170.219167,56.0033333 170.4875,54.7 C170.755833,53.3966667 171.158333,52.3233333 171.695,51.48 C171.848333,51.1733333 171.81,50.9625 171.58,50.8475 C171.35,50.7325 171.12,50.7516667 170.89,50.905 C170.583333,51.0583333 170.238333,51.1733333 169.855,51.25 L169.855,51.25 L168.705,51.48 C167.938333,51.6333333 167.401667,52.1125 167.095,52.9175 C166.788333,53.7225 166.558333,54.4316667 166.405,55.045 C164.028333,55.275 161.805,56.0033333 159.735,57.23 C157.665,58.4566667 155.825,59.9516667 154.215,61.715 C153.448333,62.4816667 152.624167,63.4783333 151.7425,64.705 C150.860833,65.9316667 150.036667,67.235 149.27,68.615 C148.503333,69.995 147.870833,71.4133333 147.3725,72.87 C146.874167,74.3266667 146.625,75.745 146.625,77.125 C146.625,79.5783333 148.005,80.805 150.765,80.805 Z M152.95,79.08 C152.26,79.08 151.819167,78.85 151.6275,78.39 C151.435833,77.93 151.34,77.4316667 151.34,76.895 C151.263333,75.1316667 151.6275,73.2725 152.4325,71.3175 C153.2375,69.3625 154.138333,67.5416667 155.135,65.855 C155.901667,64.5516667 156.745,63.2866667 157.665,62.06 C158.585,60.8333333 159.505,59.7408333 160.425,58.7825 C161.345,57.8241667 162.265,57.0575 163.185,56.4825 C164.105,55.9075 164.986667,55.62 165.83,55.62 C166.136667,55.62 166.29,55.8116667 166.29,56.195 C166.29,57.0383333 166.328333,57.92 166.405,58.84 C166.481667,59.76 166.596667,60.565 166.75,61.255 C166.596667,62.3283333 166.040833,63.8616667 165.0825,65.855 C164.124167,67.8483333 162.955,69.8225 161.575,71.7775 C160.195,73.7325 158.738333,75.4383333 157.205,76.895 C155.671667,78.3516667 154.253333,79.08 152.95,79.08 Z M189.52,81.495 C191.513333,81.495 193.564167,80.9966667 195.6725,80 C197.780833,79.0033333 199.850833,77.7383333 201.8825,76.205 C203.914167,74.6716667 205.830833,72.9275 207.6325,70.9725 C209.434167,69.0175 211.025,67.0816667 212.405,65.165 C212.788333,64.705 212.826667,64.4175 212.52,64.3025 C212.213333,64.1875 211.983333,64.245 211.83,64.475 C210.756667,66.1616667 209.376667,67.925 207.69,69.765 C206.003333,71.605 204.220833,73.2725 202.3425,74.7675 C200.464167,76.2625 198.643333,77.5083333 196.88,78.505 C195.116667,79.5016667 193.583333,80 192.28,80 C191.436667,80 190.823333,79.8275 190.44,79.4825 C190.056667,79.1375 189.865,78.505 189.865,77.585 C189.865,76.5116667 190.248333,75.055 191.015,73.215 C191.781667,71.375 192.720833,69.4391667 193.8325,67.4075 C194.944167,65.3758333 196.113333,63.4016667 197.34,61.485 C198.566667,59.5683333 199.601667,57.9966667 200.445,56.77 C200.828333,56.1566667 201.02,55.6966667 201.02,55.39 C201.02,55.0833333 200.885833,54.7575 200.6175,54.4125 C200.349167,54.0675 200.061667,53.895 199.755,53.895 C199.295,53.895 198.470833,54.2975 197.2825,55.1025 C196.094167,55.9075 194.714167,56.9233333 193.1425,58.15 C191.570833,59.3766667 189.9225,60.7183333 188.1975,62.175 C186.4725,63.6316667 184.881667,65.0116667 183.425,66.315 C184.498333,63.9383333 185.590833,61.8491667 186.7025,60.0475 C187.814167,58.2458333 188.37,57.1916667 188.37,56.885 C188.37,56.425 188.178333,56.0033333 187.795,55.62 C187.411667,55.2366667 186.99,55.045 186.53,55.045 C186.07,55.045 185.725,55.2366667 185.495,55.62 C184.575,57.7666667 183.463333,60.2008333 182.16,62.9225 C180.856667,65.6441667 179.591667,68.2316667 178.365,70.685 C177.215,72.1416667 176.160833,73.4641667 175.2025,74.6525 C174.244167,75.8408333 173.765,76.78 173.765,77.47 C173.765,77.7 173.899167,78.2366667 174.1675,79.08 C174.435833,79.9233333 174.761667,80.345 175.145,80.345 C175.298333,80.345 175.528333,80.115 175.835,79.655 C177.138333,77.6616667 178.230833,75.86 179.1125,74.25 C179.994167,72.64 181.048333,70.8766667 182.275,68.96 C182.965,68.1166667 183.865833,67.1583333 184.9775,66.085 C186.089167,65.0116667 187.239167,63.9575 188.4275,62.9225 C189.615833,61.8875 190.785,60.91 191.935,59.99 C193.085,59.07 194.081667,58.3416667 194.925,57.805 C195.308333,57.575 195.5575,57.5941667 195.6725,57.8625 C195.7875,58.1308333 195.768333,58.4566667 195.615,58.84 C194.925,60.45 194.024167,62.2133333 192.9125,64.13 C191.800833,66.0466667 190.7275,67.925 189.6925,69.765 C188.6575,71.605 187.756667,73.3491667 186.99,74.9975 C186.223333,76.6458333 185.84,78.0066667 185.84,79.08 C185.84,80.1533333 186.223333,80.8241667 186.99,81.0925 C187.756667,81.3608333 188.6,81.495 189.52,81.495 Z M215.51,80.575 C217.196667,80.575 218.9025,80.4983333 220.6275,80.345 C222.3525,80.1916667 223.905,80 225.285,79.77 C225.668333,79.6933333 225.86,79.54 225.86,79.31 C225.86,79.08 225.438333,78.965 224.595,78.965 C222.141667,78.965 220.301667,78.6775 219.075,78.1025 C217.848333,77.5275 217.235,76.5116667 217.235,75.055 C217.235,73.9816667 217.656667,72.6016667 218.5,70.915 C219.803333,68.385 221.413333,65.395 223.33,61.945 C225.246667,58.495 227.24,54.9491667 229.31,51.3075 C231.38,47.6658333 233.430833,44.1391667 235.4625,40.7275 C237.494167,37.3158333 239.238333,34.3833333 240.695,31.93 C241.231667,30.9333333 241.998333,30.2816667 242.995,29.975 C244.528333,29.5916667 246.253333,29.4 248.17,29.4 C250.93,29.4 253.2875,29.975 255.2425,31.125 C257.1975,32.275 258.175,34.46 258.175,37.68 C258.175,39.98 257.6575,42.28 256.6225,44.58 C255.5875,46.88 254.169167,48.95 252.3675,50.79 C250.565833,52.63 248.419167,54.125 245.9275,55.275 C243.435833,56.425 240.733333,57 237.82,57 C236.9,57 235.9225,56.9233333 234.8875,56.77 C233.8525,56.6166667 233.143333,56.4633333 232.76,56.31 C232.453333,56.31 232.3,56.4633333 232.3,56.77 C232.3,56.9233333 232.415,57.0766667 232.645,57.23 C234.101667,57.7666667 235.788333,58.035 237.705,58.035 C241.768333,58.035 245.390833,57.4025 248.5725,56.1375 C251.754167,54.8725 254.456667,53.2625 256.68,51.3075 C258.903333,49.3525 260.609167,47.2441667 261.7975,44.9825 C262.985833,42.7208333 263.58,40.6316667 263.58,38.715 C263.58,36.7216667 263.139167,35.0541667 262.2575,33.7125 C261.375833,32.3708333 260.225833,31.2975 258.8075,30.4925 C257.389167,29.6875 255.8175,29.1316667 254.0925,28.825 C252.3675,28.5183333 250.661667,28.365 248.975,28.365 C248.055,28.365 246.770833,28.4416667 245.1225,28.595 C243.474167,28.7483333 241.595833,28.94 239.4875,29.17 C237.379167,29.4 235.136667,29.5916667 232.76,29.745 C230.383333,29.8983333 228.045,29.975 225.745,29.975 C224.825,29.975 223.866667,29.9558333 222.87,29.9175 C221.873333,29.8791667 221.03,29.7833333 220.34,29.63 C219.496667,29.4766667 219.036667,29.2083333 218.96,28.825 C218.883333,28.5183333 218.768333,28.365 218.615,28.365 C218.385,28.365 218.135833,28.6908333 217.8675,29.3425 C217.599167,29.9941667 217.465,30.3966667 217.465,30.55 C217.465,31.3933333 218.193333,31.815 219.65,31.815 C222.103333,31.815 224.499167,31.6616667 226.8375,31.355 C229.175833,31.0483333 231.571667,30.8566667 234.025,30.78 C234.408333,30.78 234.6,30.9333333 234.6,31.24 C234.6,31.47 234.485,31.8916667 234.255,32.505 C234.025,33.1183333 233.756667,33.77 233.45,34.46 C233.143333,35.15 232.836667,35.8208333 232.53,36.4725 C232.223333,37.1241667 231.993333,37.565 231.84,37.795 C230.153333,40.9383333 228.198333,44.4841667 225.975,48.4325 C223.751667,52.3808333 221.681667,55.965 219.765,59.185 C218.155,61.8683333 216.468333,64.705 214.705,67.695 C212.941667,70.685 211.523333,73.3683333 210.45,75.745 C210.066667,76.665 209.875,77.355 209.875,77.815 C209.875,78.4283333 210.105,78.9075 210.565,79.2525 C211.025,79.5975 211.561667,79.8658333 212.175,80.0575 C212.788333,80.2491667 213.420833,80.3833333 214.0725,80.46 C214.724167,80.5366667 215.203333,80.575 215.51,80.575 Z M269.905,82.53 C271.668333,82.53 273.604167,81.9933333 275.7125,80.92 C277.820833,79.8466667 279.948333,78.4283333 282.095,76.665 C284.241667,74.9016667 286.369167,72.9275 288.4775,70.7425 C290.585833,68.5575 292.521667,66.3916667 294.285,64.245 C294.285,64.015 294.208333,63.8425 294.055,63.7275 C293.901667,63.6125 293.748333,63.67 293.595,63.9 C291.755,66.2 289.819167,68.385 287.7875,70.455 C285.755833,72.525 283.781667,74.3458333 281.865,75.9175 C279.948333,77.4891667 278.146667,78.7158333 276.46,79.5975 C274.773333,80.4791667 273.316667,80.92 272.09,80.92 C271.016667,80.92 270.3075,80.69 269.9625,80.23 C269.6175,79.77 269.445,79.195 269.445,78.505 C269.445,76.7416667 270.269167,74.0391667 271.9175,70.3975 C273.565833,66.7558333 276.153333,61.83 279.68,55.62 C280.14,55.62 280.83,55.6583333 281.75,55.735 C282.67,55.8116667 283.36,55.9266667 283.82,56.08 C284.05,56.08 284.165,55.965 284.165,55.735 C284.165,55.505 283.973333,55.3133333 283.59,55.16 C283.206667,55.0833333 282.631667,55.0066667 281.865,54.93 C281.098333,54.8533333 280.523333,54.815 280.14,54.815 C280.523333,54.2016667 280.8875,53.6075 281.2325,53.0325 C281.5775,52.4575 281.941667,51.9783333 282.325,51.595 L282.325,51.595 L282.095,51.48 L278.875,52.4 C278.568333,52.5533333 278.261667,52.7833333 277.955,53.09 C277.648333,53.3966667 277.303333,53.9333333 276.92,54.7 C273.7,54.7 270.595,55.6008333 267.605,57.4025 C264.615,59.2041667 261.950833,61.3508333 259.6125,63.8425 C257.274167,66.3341667 255.415,68.9216667 254.035,71.605 C252.655,74.2883333 251.965,76.5116667 251.965,78.275 C251.965,79.885 252.77,80.69 254.38,80.69 C255.453333,80.69 256.68,80.2875 258.06,79.4825 C259.44,78.6775 260.82,77.6808333 262.2,76.4925 C263.58,75.3041667 264.921667,73.9816667 266.225,72.525 C267.528333,71.0683333 268.678333,69.6883333 269.675,68.385 C268.371667,70.455 267.394167,72.3908333 266.7425,74.1925 C266.090833,75.9941667 265.765,77.4316667 265.765,78.505 C265.765,79.655 266.071667,80.6133333 266.685,81.38 C267.298333,82.1466667 268.371667,82.53 269.905,82.53 Z M257.14,78.505 C256.68,78.505 256.45,78.1983333 256.45,77.585 C256.45,76.435 257.005833,74.6333333 258.1175,72.18 C259.229167,69.7266667 260.705,67.2541667 262.545,64.7625 C264.385,62.2708333 266.493333,60.105 268.87,58.265 C271.246667,56.425 273.738333,55.505 276.345,55.505 L276.345,55.505 L276.46,55.62 C275.54,57.23 274.505,59.07 273.355,61.14 C272.205,63.21 271.016667,65.165 269.79,67.005 C268.716667,68.615 267.5475,70.11 266.2825,71.49 C265.0175,72.87 263.771667,74.0775 262.545,75.1125 C261.318333,76.1475 260.225833,76.9716667 259.2675,77.585 C258.309167,78.1983333 257.6,78.505 257.14,78.505 Z M286.005,80.46 C286.388333,80.46 286.618333,80.345 286.695,80.115 C287.768333,78.4283333 288.765,76.7608333 289.685,75.1125 C290.605,73.4641667 291.563333,71.8541667 292.56,70.2825 C293.556667,68.7108333 294.610833,67.1966667 295.7225,65.74 C296.834167,64.2833333 298.118333,62.9416667 299.575,61.715 C300.495,60.8716667 301.568333,60.105 302.795,59.415 C304.021667,58.725 305.133333,58.38 306.13,58.38 C306.973333,58.38 307.625,58.495 308.085,58.725 C308.545,58.955 308.909167,59.2041667 309.1775,59.4725 C309.445833,59.7408333 309.656667,59.99 309.81,60.22 C309.963333,60.45 310.078333,60.565 310.155,60.565 C310.385,60.565 310.538333,60.45 310.615,60.22 C310.768333,59.8366667 311.094167,59.2616667 311.5925,58.495 C312.090833,57.7283333 312.57,57.0766667 313.03,56.54 C313.03,56.1566667 312.780833,55.7925 312.2825,55.4475 C311.784167,55.1025 311.19,54.93 310.5,54.93 C309.58,54.93 308.525833,55.1983333 307.3375,55.735 C306.149167,56.2716667 304.941667,56.9425 303.715,57.7475 C302.488333,58.5525 301.319167,59.415 300.2075,60.335 C299.095833,61.255 298.156667,62.0983333 297.39,62.865 C297.16,63.095 296.968333,63.21 296.815,63.21 C296.661667,63.21 296.7,63.0183333 296.93,62.635 C297.083333,62.405 297.313333,62.0216667 297.62,61.485 C297.926667,60.9483333 298.2525,60.3925 298.5975,59.8175 C298.9425,59.2425 299.249167,58.6866667 299.5175,58.15 C299.785833,57.6133333 299.92,57.23 299.92,57 C299.92,56.31 299.613333,55.7733333 299,55.39 C298.386667,55.0066667 298.003333,54.815 297.85,54.815 C297.696667,54.815 297.428333,55.16 297.045,55.85 C296.738333,56.54 296.163333,57.5941667 295.32,59.0125 C294.476667,60.4308333 293.499167,62.0983333 292.3875,64.015 C291.275833,65.9316667 290.0875,67.9825 288.8225,70.1675 C287.5575,72.3525 286.311667,74.5183333 285.085,76.665 C284.548333,77.585 284.28,78.275 284.28,78.735 C284.28,78.965 284.529167,79.31 285.0275,79.77 C285.525833,80.23 285.851667,80.46 286.005,80.46 Z M309.005,80.805 C309.465,80.805 309.771667,80.6133333 309.925,80.23 C311.611667,77.24 313.681667,74.48 316.135,71.95 C318.588333,69.42 321.041667,66.9666667 323.495,64.59 C324.108333,67.81 324.664167,70.455 325.1625,72.525 C325.660833,74.595 326.1975,76.2241667 326.7725,77.4125 C327.3475,78.6008333 328.018333,79.425 328.785,79.885 C329.551667,80.345 330.433333,80.575 331.43,80.575 C332.733333,80.575 334.305,80.115 336.145,79.195 C337.218333,78.5816667 338.406667,77.7383333 339.71,76.665 C341.013333,75.5916667 342.335833,74.365 343.6775,72.985 C345.019167,71.605 346.341667,70.1483333 347.645,68.615 C348.948333,67.0816667 350.175,65.5483333 351.325,64.015 C351.555,63.785 351.535833,63.555 351.2675,63.325 C350.999167,63.095 350.75,63.1716667 350.52,63.555 C349.523333,65.0116667 348.354167,66.5641667 347.0125,68.2125 C345.670833,69.8608333 344.271667,71.3941667 342.815,72.8125 C341.358333,74.2308333 339.920833,75.4 338.5025,76.32 C337.084167,77.24 335.8,77.7 334.65,77.7 C333.883333,77.7 333.135833,77.5083333 332.4075,77.125 C331.679167,76.7416667 331.123333,76.1283333 330.74,75.285 C330.28,74.365 329.839167,73.3108333 329.4175,72.1225 C328.995833,70.9341667 328.631667,69.7266667 328.325,68.5 C328.018333,67.2733333 327.75,66.0466667 327.52,64.82 C327.29,63.5933333 327.136667,62.4816667 327.06,61.485 C327.826667,60.795 328.8425,59.9516667 330.1075,58.955 C331.3725,57.9583333 332.675833,56.9616667 334.0175,55.965 C335.359167,54.9683333 336.681667,54.0866667 337.985,53.32 C339.288333,52.5533333 340.4,52.0166667 341.32,51.71 C342.086667,51.48 342.47,51.135 342.47,50.675 C342.24,50.0616667 342.029167,49.6591667 341.8375,49.4675 C341.645833,49.2758333 341.435,49.18 341.205,49.18 C340.898333,49.18 340.074167,49.6975 338.7325,50.7325 C337.390833,51.7675 335.915,52.9175 334.305,54.1825 C332.695,55.4475 331.2,56.6741667 329.82,57.8625 C328.44,59.0508333 327.558333,59.7983333 327.175,60.105 C327.098333,59.9516667 327.06,59.76 327.06,59.53 C327.06,59.2233333 326.983333,59.07 326.83,59.07 C326.293333,59.2233333 325.545833,59.5875 324.5875,60.1625 C323.629167,60.7375 323.15,61.3316667 323.15,61.945 C323.15,62.635 323.188333,63.1333333 323.265,63.44 C321.655,64.8966667 320.16,66.2383333 318.78,67.465 C317.4,68.6916667 316.058333,69.9566667 314.755,71.26 C314.295,71.72 313.988333,71.95 313.835,71.95 C313.758333,71.95 313.873333,71.6433333 314.18,71.03 C314.563333,70.1866667 315.445,68.5575 316.825,66.1425 C318.205,63.7275 319.776667,60.9675 321.54,57.8625 C323.303333,54.7575 325.143333,51.5758333 327.06,48.3175 C328.976667,45.0591667 330.701667,42.165 332.235,39.635 C334.688333,35.6483333 337.275833,31.7575 339.9975,27.9625 C342.719167,24.1675 345.498333,20.8133333 348.335,17.9 C351.401667,14.7566667 354.2575,12.725 356.9025,11.805 C359.5475,10.885 361.751667,10.425 363.515,10.425 C364.281667,10.425 365.086667,10.5208333 365.93,10.7125 C366.773333,10.9041667 367.559167,11.2108333 368.2875,11.6325 C369.015833,12.0541667 369.61,12.61 370.07,13.3 C370.53,13.99 370.76,14.795 370.76,15.715 C370.76,15.945 370.721667,16.1558333 370.645,16.3475 C370.568333,16.5391667 370.53,16.75 370.53,16.98 C370.53,17.3633333 370.664167,17.5358333 370.9325,17.4975 C371.200833,17.4591667 371.335,17.2483333 371.335,16.865 C371.488333,15.7916667 371.775833,14.8333333 372.1975,13.99 C372.619167,13.1466667 372.83,12.3033333 372.83,11.46 C372.83,10.6933333 372.619167,10.0416667 372.1975,9.505 C371.775833,8.96833333 371.258333,8.5275 370.645,8.1825 C370.031667,7.8375 369.360833,7.56916667 368.6325,7.3775 C367.904167,7.18583333 367.233333,7.09 366.62,7.09 C365.93,7.09 365.220833,7.16666667 364.4925,7.32 C363.764167,7.47333333 363.016667,7.62666667 362.25,7.78 C360.563333,8.16333333 358.895833,8.815 357.2475,9.735 C355.599167,10.655 354.008333,11.7091667 352.475,12.8975 C350.941667,14.0858333 349.465833,15.3891667 348.0475,16.8075 C346.629167,18.2258333 345.306667,19.625 344.08,21.005 C342.393333,22.9216667 340.649167,25.0491667 338.8475,27.3875 C337.045833,29.7258333 335.2825,32.1025 333.5575,34.5175 C331.8325,36.9325 330.184167,39.3091667 328.6125,41.6475 C327.040833,43.9858333 325.641667,46.1516667 324.415,48.145 C321.731667,52.4383333 319.47,56.1566667 317.63,59.3 C315.79,62.4433333 314.2375,65.1458333 312.9725,67.4075 C311.7075,69.6691667 310.653333,71.5858333 309.81,73.1575 C308.966667,74.7291667 308.161667,76.0516667 307.395,77.125 C307.318333,77.2783333 307.28,77.4316667 307.28,77.585 L307.28,77.585 L307.28,78.045 C307.28,78.5816667 307.433333,79.1758333 307.74,79.8275 C308.046667,80.4791667 308.468333,80.805 309.005,80.805 Z" id="path-1"></path>
    </defs>
    <g id="Page-1" stroke="none" stroke-width="1" fill="none" fill-rule="evenodd">
        <g id="Artboard" transform="translate(-145.000000, -209.000000)" fill-rule="nonzero">
            <g id="Group" transform="translate(145.930000, 209.000000)">
                <g id="CretonPark">
                    <use fill="#5E615D" xlink:href="#path-1"></use>
                    <use fill="#CC8625" xlink:href="#path-1"></use>
                </g>
                <g id="icons8-medieval_crown" transform="translate(65.070000, 0.000000)" fill="#CC8625">
                    <path d="M28.6363636,0 L22.9090909,9.54545455 C22.9090909,9.54545455 26.7272727,11.6779091 26.7272727,15.2727273 C26.7272727,21.2653636 23.2412727,22.9090909 21,22.9090909 C19.2016364,22.9090909 15.0751066,21.9430909 15.0751066,19.0909091 C15.0751066,17.5922727 17.1818182,16.4621806 17.1818182,16.4621806 L11.8572443,9.50443887 L9.54545455,17.8902704 C9.54545455,17.8902704 12.5458295,18.0397751 12.6775568,20.8881387 C12.8150114,23.8835024 10.0341818,24.8181818 7.63636364,24.8181818 C6.29427273,24.8181818 4.70561089,24.4096364 4.70561089,22.9090909 C4.70561089,21.7101818 5.72727273,20.9105114 5.72727273,20.9105114 L0,17.1818182 L7.63636364,42 L49.6363636,42 L57.2727273,17.1818182 L51.5454545,20.9105114 C51.5454545,20.9105114 52.567116,21.7101818 52.567116,22.9090909 C52.567116,24.4096364 50.9784545,24.8181818 49.6363636,24.8181818 C47.2385455,24.8181818 44.4577159,23.8815933 44.5951705,20.8881387 C44.7268977,18.0397751 47.7272727,17.8902704 47.7272727,17.8902704 L45.415482,9.50071023 L40.0909091,16.4621806 C40.0909091,16.4621806 42.1976215,17.5922727 42.1976215,19.0909091 C42.1976215,21.9430909 38.0710909,22.9090909 36.2727273,22.9090909 C34.0314545,22.9090909 30.5454545,21.2653636 30.5454545,15.2727273 C30.5454545,11.6779091 34.3636364,9.54545455 34.3636364,9.54545455 L28.6363636,0 Z M28.6363636,7.42009953 L29.4119318,8.71395592 C29.1484773,9.00604683 28.8864545,9.32495455 28.6363636,9.66477273 C28.3862727,9.32495455 28.12425,9.00786657 27.8607955,8.71768456 L28.6363636,7.42009953 Z M28.6363636,22.5138499 C30.4977273,25.3774863 33.4510909,26.7272727 36.2727273,26.7272727 C38.0863636,26.7272727 40.231107,26.2528942 42.0447453,25.2544396 C42.2413816,25.5312578 42.4586285,25.7948307 42.6972649,26.0449216 C44.2932649,27.7153762 46.7574545,28.6363636 49.6363636,28.6363636 L49.7519534,28.6363636 L46.8137422,38.1818182 L10.4552557,38.1818182 L7.51704545,28.6363636 L7.63263499,28.6363636 C10.5115441,28.6363636 12.977642,27.7153762 14.571733,26.0449216 C14.8122784,25.7929216 15.029527,25.5312578 15.2242543,25.2544396 C17.0417089,26.2528942 19.1863636,26.7272727 21,26.7272727 C23.8216364,26.7272727 26.775,25.3774863 28.6363636,22.5138499 Z M13.3636364,30.5454545 C12.3092746,30.5454545 11.4545455,31.4001837 11.4545455,32.4545455 C11.4545455,33.5089072 12.3092746,34.3636364 13.3636364,34.3636364 C14.4179982,34.3636364 15.2727273,33.5089072 15.2727273,32.4545455 C15.2727273,31.4001837 14.4179982,30.5454545 13.3636364,30.5454545 Z M21,30.5454545 C19.9456382,30.5454545 19.0909091,31.4001837 19.0909091,32.4545455 C19.0909091,33.5089072 19.9456382,34.3636364 21,34.3636364 C22.0543618,34.3636364 22.9090909,33.5089072 22.9090909,32.4545455 C22.9090909,31.4001837 22.0543618,30.5454545 21,30.5454545 Z M28.6363636,30.5454545 C27.5820018,30.5454545 26.7272727,31.4001837 26.7272727,32.4545455 C26.7272727,33.5089072 27.5820018,34.3636364 28.6363636,34.3636364 C29.6907254,34.3636364 30.5454545,33.5089072 30.5454545,32.4545455 C30.5454545,31.4001837 29.6907254,30.5454545 28.6363636,30.5454545 Z M36.2727273,30.5454545 C35.2183655,30.5454545 34.3636364,31.4001837 34.3636364,32.4545455 C34.3636364,33.5089072 35.2183655,34.3636364 36.2727273,34.3636364 C37.3270891,34.3636364 38.1818182,33.5089072 38.1818182,32.4545455 C38.1818182,31.4001837 37.3270891,30.5454545 36.2727273,30.5454545 Z M43.9090909,30.5454545 C42.8547291,30.5454545 42,31.4001837 42,32.4545455 C42,33.5089072 42.8547291,34.3636364 43.9090909,34.3636364 C44.9634527,34.3636364 45.8181818,33.5089072 45.8181818,32.4545455 C45.8181818,31.4001837 44.9634527,30.5454545 43.9090909,30.5454545 Z" id="Shape"></path>
                </g>
            </g>
        </g>
    </g>
</svg>